<?xml version="1.0" encoding="UTF-8"?>
<svg width="500" height="500" viewBox="0 0 500 500" fill="none" xmlns="http://www.w3.org/2000/svg">
<path d="M366.47 455.52C296.91 494.79 209.09 497.95 134.46 456.13C20.7996 392.42 -19.8404 248.13 43.8596 134.47C107.57 20.7999 251.86 -19.8201 365.52 43.8699C479.18 107.58 519.82 251.87 456.12 365.52C434.24 404.55 402.86 434.98 366.48 455.52H366.47ZM139.84 55.6599C105.43 75.0799 75.7596 103.85 55.0796 140.76C-5.16045 248.24 33.2695 384.68 140.75 444.92C248.22 505.16 384.67 466.73 444.9 359.25C505.14 251.78 466.71 115.33 359.23 55.0999C288.67 15.5499 205.61 18.5399 139.84 55.6699V55.6599Z" fill="currentColor"/>
<path d="M140.31 211.55C128.25 218.36 130.78 245.67 145.96 272.55C161.14 299.43 183.22 315.71 195.28 308.9C207.34 302.09 204.81 274.78 189.63 247.9C174.45 221.02 152.37 204.74 140.31 211.55Z" fill="currentColor"/>
<path d="M270.07 138.29C258.01 145.1 260.54 172.41 275.72 199.29C290.9 226.17 312.98 242.45 325.04 235.64C337.1 228.83 334.57 201.52 319.39 174.64C304.21 147.76 282.13 131.48 270.07 138.29Z" fill="currentColor"/>
<path d="M205.28 174.87C193.22 181.68 195.75 208.99 210.93 235.87C226.11 262.75 248.19 279.03 260.25 272.22C272.31 265.41 269.78 238.1 254.6 211.22C239.42 184.34 217.34 168.06 205.28 174.87Z" fill="currentColor"/>
<path d="M331.36 393.52C319.94 399.97 307.65 405.09 294.7 408.74C252.3 420.68 207.79 415.4 169.36 393.86C152.94 384.66 138.37 372.88 126.05 358.85C123.71 356.18 123.97 352.13 126.64 349.78C129.26 347.43 133.36 347.7 135.71 350.37C147.07 363.29 160.5 374.16 175.65 382.64C211.08 402.5 252.13 407.37 291.22 396.36C330.31 385.35 362.78 359.77 382.63 324.34C402.49 288.91 407.36 247.86 396.35 208.77C395.39 205.36 397.37 201.8 400.79 200.84C404.21 199.88 407.76 201.87 408.72 205.28C420.66 247.68 415.38 292.19 393.84 330.62C378.88 357.31 357.33 378.84 331.35 393.51L331.36 393.52Z" fill="currentColor"/>
</svg>